<svg xmlns="http://www.w3.org/2000/svg" width="1000pt" height="1000pt" viewBox="0 0 1000 1000"><path d="M500 40C246.34 40 40 246.36 40 500s206.34 460 460 460 460-206.36 460-460S753.66 40 500 40M232 260h116c17.672 0 32 14.328 32 32v196c0 17.68-14.32 32-32 32H200v-40h128c6.629 0 12-5.371 12-12V312c0-6.629-5.371-12-12-12h-76c-6.629 0-12 5.371-12 12v76c0 6.629 5.371 12 12 12h58v40h-78c-17.672 0-32-14.328-32-32V292c0-17.68 14.32-32 32-32m210 0h116c17.64 0 32 14.36 32 32v116c0 17.64-14.36 32-32 32H442c-17.64 0-32-14.36-32-32V292c0-17.64 14.36-32 32-32m210 0h116c17.672 0 32 14.328 32 32v196c0 17.68-14.32 32-32 32H620v-40h128c6.629 0 12-5.371 12-12V312c0-6.629-5.371-12-12-12h-76c-6.629 0-12 5.371-12 12v76c0 6.629 5.371 12 12 12h58v40h-78c-17.672 0-32-14.328-32-32V292c0-17.68 14.32-32 32-32m-190 40c-6.629 0-12 5.371-12 12v76c0 6.629 5.371 12 12 12h76c6.629 0 12-5.371 12-12v-76c0-6.629-5.371-12-12-12zM232 560h118v40h-98c-6.629 0-12 5.371-12 12v76c0 6.629 5.371 12 12 12h98v40H232c-17.672 0-32-14.328-32-32V592c0-17.672 14.328-32 32-32m180 0h116c17.64 0 32 14.36 32 32v116c0 17.64-14.36 32-32 32H412c-17.64 0-32-14.36-32-32V592c0-17.64 14.36-32 32-32m210 0h178v180h-40V600h-33c-6.629 0-12 5.371-12 12v128h-40V600h-33c-6.629 0-12 5.371-12 12v128h-40V592c0-17.672 14.328-32 32-32m-190 40c-6.629 0-12 5.371-12 12v76c0 6.629 5.371 12 12 12h76c6.629 0 12-5.371 12-12v-76c0-6.629-5.371-12-12-12zm0 0" style="fill:#000;fill-opacity:1;fill-rule:nonzero;stroke:none" transform="translate(-42.12 -42.12)scale(1.08424)"/></svg>